<?xml version="1.0" encoding="utf-8" standalone="no"?>
<!DOCTYPE svg PUBLIC "-//W3C//DTD SVG 1.1//EN"
  "http://www.w3.org/Graphics/SVG/1.1/DTD/svg11.dtd">
<svg xmlns:xlink="http://www.w3.org/1999/xlink" width="460.8pt" height="345.6pt" viewBox="0 0 460.8 345.6" xmlns="http://www.w3.org/2000/svg" version="1.1">
 <metadata>
  <rdf:RDF xmlns:dc="http://purl.org/dc/elements/1.1/" xmlns:cc="http://creativecommons.org/ns#" xmlns:rdf="http://www.w3.org/1999/02/22-rdf-syntax-ns#">
   <cc:Work>
    <dc:type rdf:resource="http://purl.org/dc/dcmitype/StillImage"/>
    <dc:date>2022-04-12T20:29:33.307916</dc:date>
    <dc:format>image/svg+xml</dc:format>
    <dc:creator>
     <cc:Agent>
      <dc:title>Matplotlib v3.5.0, https://matplotlib.org/</dc:title>
     </cc:Agent>
    </dc:creator>
   </cc:Work>
  </rdf:RDF>
 </metadata>
 <defs>
  <style type="text/css">*{stroke-linejoin: round; stroke-linecap: butt}</style>
 </defs>
 <g id="figure_1">
  <g id="patch_1">
   <path d="M 0 345.6 
L 460.8 345.6 
L 460.8 0 
L 0 0 
z
" style="fill: #ffffff"/>
  </g>
  <g id="axes_1">
   <g id="patch_2">
    <path d="M 57.6 307.584 
L 414.72 307.584 
L 414.72 41.472 
L 57.6 41.472 
z
" style="fill: #ffffff"/>
   </g>
   <g id="matplotlib.axis_1">
    <g id="xtick_1">
     <g id="line2d_1">
      <defs>
       <path id="m030f0ea1f4" d="M 0 0 
L 0 -3.5 
" style="stroke: #000000; stroke-width: 0.8"/>
      </defs>
      <g>
       <use xlink:href="#m030f0ea1f4" x="73.832281" y="307.584" style="stroke: #000000; stroke-width: 0.8"/>
      </g>
     </g>
     <g id="text_1">
      <!-- 0 -->
      <g transform="translate(70.651031 318.682437)scale(0.1 -0.1)">
       <defs>
        <path id="DejaVuSans-30" d="M 2034 4250 
Q 1547 4250 1301 3770 
Q 1056 3291 1056 2328 
Q 1056 1369 1301 889 
Q 1547 409 2034 409 
Q 2525 409 2770 889 
Q 3016 1369 3016 2328 
Q 3016 3291 2770 3770 
Q 2525 4250 2034 4250 
z
M 2034 4750 
Q 2819 4750 3233 4129 
Q 3647 3509 3647 2328 
Q 3647 1150 3233 529 
Q 2819 -91 2034 -91 
Q 1250 -91 836 529 
Q 422 1150 422 2328 
Q 422 3509 836 4129 
Q 1250 4750 2034 4750 
z
" transform="scale(0.015625)"/>
       </defs>
       <use xlink:href="#DejaVuSans-30"/>
      </g>
     </g>
    </g>
    <g id="xtick_2">
     <g id="line2d_2">
      <g>
       <use xlink:href="#m030f0ea1f4" x="146.46151" y="307.584" style="stroke: #000000; stroke-width: 0.8"/>
      </g>
     </g>
     <g id="text_2">
      <!-- 10 -->
      <g transform="translate(140.09901 318.682437)scale(0.1 -0.1)">
       <defs>
        <path id="DejaVuSans-31" d="M 794 531 
L 1825 531 
L 1825 4091 
L 703 3866 
L 703 4441 
L 1819 4666 
L 2450 4666 
L 2450 531 
L 3481 531 
L 3481 0 
L 794 0 
L 794 531 
z
" transform="scale(0.015625)"/>
       </defs>
       <use xlink:href="#DejaVuSans-31"/>
       <use xlink:href="#DejaVuSans-30" x="63.623047"/>
      </g>
     </g>
    </g>
    <g id="xtick_3">
     <g id="line2d_3">
      <g>
       <use xlink:href="#m030f0ea1f4" x="219.09074" y="307.584" style="stroke: #000000; stroke-width: 0.8"/>
      </g>
     </g>
     <g id="text_3">
      <!-- 20 -->
      <g transform="translate(212.72824 318.682437)scale(0.1 -0.1)">
       <defs>
        <path id="DejaVuSans-32" d="M 1228 531 
L 3431 531 
L 3431 0 
L 469 0 
L 469 531 
Q 828 903 1448 1529 
Q 2069 2156 2228 2338 
Q 2531 2678 2651 2914 
Q 2772 3150 2772 3378 
Q 2772 3750 2511 3984 
Q 2250 4219 1831 4219 
Q 1534 4219 1204 4116 
Q 875 4013 500 3803 
L 500 4441 
Q 881 4594 1212 4672 
Q 1544 4750 1819 4750 
Q 2544 4750 2975 4387 
Q 3406 4025 3406 3419 
Q 3406 3131 3298 2873 
Q 3191 2616 2906 2266 
Q 2828 2175 2409 1742 
Q 1991 1309 1228 531 
z
" transform="scale(0.015625)"/>
       </defs>
       <use xlink:href="#DejaVuSans-32"/>
       <use xlink:href="#DejaVuSans-30" x="63.623047"/>
      </g>
     </g>
    </g>
    <g id="xtick_4">
     <g id="line2d_4">
      <g>
       <use xlink:href="#m030f0ea1f4" x="291.719969" y="307.584" style="stroke: #000000; stroke-width: 0.8"/>
      </g>
     </g>
     <g id="text_4">
      <!-- 30 -->
      <g transform="translate(285.357469 318.682437)scale(0.1 -0.1)">
       <defs>
        <path id="DejaVuSans-33" d="M 2597 2516 
Q 3050 2419 3304 2112 
Q 3559 1806 3559 1356 
Q 3559 666 3084 287 
Q 2609 -91 1734 -91 
Q 1441 -91 1130 -33 
Q 819 25 488 141 
L 488 750 
Q 750 597 1062 519 
Q 1375 441 1716 441 
Q 2309 441 2620 675 
Q 2931 909 2931 1356 
Q 2931 1769 2642 2001 
Q 2353 2234 1838 2234 
L 1294 2234 
L 1294 2753 
L 1863 2753 
Q 2328 2753 2575 2939 
Q 2822 3125 2822 3475 
Q 2822 3834 2567 4026 
Q 2313 4219 1838 4219 
Q 1578 4219 1281 4162 
Q 984 4106 628 3988 
L 628 4550 
Q 988 4650 1302 4700 
Q 1616 4750 1894 4750 
Q 2613 4750 3031 4423 
Q 3450 4097 3450 3541 
Q 3450 3153 3228 2886 
Q 3006 2619 2597 2516 
z
" transform="scale(0.015625)"/>
       </defs>
       <use xlink:href="#DejaVuSans-33"/>
       <use xlink:href="#DejaVuSans-30" x="63.623047"/>
      </g>
     </g>
    </g>
    <g id="xtick_5">
     <g id="line2d_5">
      <g>
       <use xlink:href="#m030f0ea1f4" x="364.349199" y="307.584" style="stroke: #000000; stroke-width: 0.8"/>
      </g>
     </g>
     <g id="text_5">
      <!-- 40 -->
      <g transform="translate(357.986699 318.682437)scale(0.1 -0.1)">
       <defs>
        <path id="DejaVuSans-34" d="M 2419 4116 
L 825 1625 
L 2419 1625 
L 2419 4116 
z
M 2253 4666 
L 3047 4666 
L 3047 1625 
L 3713 1625 
L 3713 1100 
L 3047 1100 
L 3047 0 
L 2419 0 
L 2419 1100 
L 313 1100 
L 313 1709 
L 2253 4666 
z
" transform="scale(0.015625)"/>
       </defs>
       <use xlink:href="#DejaVuSans-34"/>
       <use xlink:href="#DejaVuSans-30" x="63.623047"/>
      </g>
     </g>
    </g>
    <g id="text_6">
     <!-- Time (s) -->
     <g transform="translate(215.831094 332.360562)scale(0.1 -0.1)">
      <defs>
       <path id="DejaVuSans-54" d="M -19 4666 
L 3928 4666 
L 3928 4134 
L 2272 4134 
L 2272 0 
L 1638 0 
L 1638 4134 
L -19 4134 
L -19 4666 
z
" transform="scale(0.015625)"/>
       <path id="DejaVuSans-69" d="M 603 3500 
L 1178 3500 
L 1178 0 
L 603 0 
L 603 3500 
z
M 603 4863 
L 1178 4863 
L 1178 4134 
L 603 4134 
L 603 4863 
z
" transform="scale(0.015625)"/>
       <path id="DejaVuSans-6d" d="M 3328 2828 
Q 3544 3216 3844 3400 
Q 4144 3584 4550 3584 
Q 5097 3584 5394 3201 
Q 5691 2819 5691 2113 
L 5691 0 
L 5113 0 
L 5113 2094 
Q 5113 2597 4934 2840 
Q 4756 3084 4391 3084 
Q 3944 3084 3684 2787 
Q 3425 2491 3425 1978 
L 3425 0 
L 2847 0 
L 2847 2094 
Q 2847 2600 2669 2842 
Q 2491 3084 2119 3084 
Q 1678 3084 1418 2786 
Q 1159 2488 1159 1978 
L 1159 0 
L 581 0 
L 581 3500 
L 1159 3500 
L 1159 2956 
Q 1356 3278 1631 3431 
Q 1906 3584 2284 3584 
Q 2666 3584 2933 3390 
Q 3200 3197 3328 2828 
z
" transform="scale(0.015625)"/>
       <path id="DejaVuSans-65" d="M 3597 1894 
L 3597 1613 
L 953 1613 
Q 991 1019 1311 708 
Q 1631 397 2203 397 
Q 2534 397 2845 478 
Q 3156 559 3463 722 
L 3463 178 
Q 3153 47 2828 -22 
Q 2503 -91 2169 -91 
Q 1331 -91 842 396 
Q 353 884 353 1716 
Q 353 2575 817 3079 
Q 1281 3584 2069 3584 
Q 2775 3584 3186 3129 
Q 3597 2675 3597 1894 
z
M 3022 2063 
Q 3016 2534 2758 2815 
Q 2500 3097 2075 3097 
Q 1594 3097 1305 2825 
Q 1016 2553 972 2059 
L 3022 2063 
z
" transform="scale(0.015625)"/>
       <path id="DejaVuSans-20" transform="scale(0.015625)"/>
       <path id="DejaVuSans-28" d="M 1984 4856 
Q 1566 4138 1362 3434 
Q 1159 2731 1159 2009 
Q 1159 1288 1364 580 
Q 1569 -128 1984 -844 
L 1484 -844 
Q 1016 -109 783 600 
Q 550 1309 550 2009 
Q 550 2706 781 3412 
Q 1013 4119 1484 4856 
L 1984 4856 
z
" transform="scale(0.015625)"/>
       <path id="DejaVuSans-73" d="M 2834 3397 
L 2834 2853 
Q 2591 2978 2328 3040 
Q 2066 3103 1784 3103 
Q 1356 3103 1142 2972 
Q 928 2841 928 2578 
Q 928 2378 1081 2264 
Q 1234 2150 1697 2047 
L 1894 2003 
Q 2506 1872 2764 1633 
Q 3022 1394 3022 966 
Q 3022 478 2636 193 
Q 2250 -91 1575 -91 
Q 1294 -91 989 -36 
Q 684 19 347 128 
L 347 722 
Q 666 556 975 473 
Q 1284 391 1588 391 
Q 1994 391 2212 530 
Q 2431 669 2431 922 
Q 2431 1156 2273 1281 
Q 2116 1406 1581 1522 
L 1381 1569 
Q 847 1681 609 1914 
Q 372 2147 372 2553 
Q 372 3047 722 3315 
Q 1072 3584 1716 3584 
Q 2034 3584 2315 3537 
Q 2597 3491 2834 3397 
z
" transform="scale(0.015625)"/>
       <path id="DejaVuSans-29" d="M 513 4856 
L 1013 4856 
Q 1481 4119 1714 3412 
Q 1947 2706 1947 2009 
Q 1947 1309 1714 600 
Q 1481 -109 1013 -844 
L 513 -844 
Q 928 -128 1133 580 
Q 1338 1288 1338 2009 
Q 1338 2731 1133 3434 
Q 928 4138 513 4856 
z
" transform="scale(0.015625)"/>
      </defs>
      <use xlink:href="#DejaVuSans-54"/>
      <use xlink:href="#DejaVuSans-69" x="57.958984"/>
      <use xlink:href="#DejaVuSans-6d" x="85.742188"/>
      <use xlink:href="#DejaVuSans-65" x="183.154297"/>
      <use xlink:href="#DejaVuSans-20" x="244.677734"/>
      <use xlink:href="#DejaVuSans-28" x="276.464844"/>
      <use xlink:href="#DejaVuSans-73" x="315.478516"/>
      <use xlink:href="#DejaVuSans-29" x="367.578125"/>
     </g>
    </g>
   </g>
   <g id="matplotlib.axis_2">
    <g id="ytick_1">
     <g id="line2d_6">
      <defs>
       <path id="md9583df230" d="M 0 0 
L 3.5 0 
" style="stroke: #000000; stroke-width: 0.8"/>
      </defs>
      <g>
       <use xlink:href="#md9583df230" x="57.6" y="307.584" style="stroke: #000000; stroke-width: 0.8"/>
      </g>
     </g>
     <g id="line2d_7">
      <defs>
       <path id="m761e4a7646" d="M 0 0 
L -3.5 0 
" style="stroke: #000000; stroke-width: 0.8"/>
      </defs>
      <g>
       <use xlink:href="#m761e4a7646" x="414.72" y="307.584" style="stroke: #000000; stroke-width: 0.8"/>
      </g>
     </g>
     <g id="text_7">
      <!-- 0.0 -->
      <g transform="translate(38.196875 311.383219)scale(0.1 -0.1)">
       <defs>
        <path id="DejaVuSans-2e" d="M 684 794 
L 1344 794 
L 1344 0 
L 684 0 
L 684 794 
z
" transform="scale(0.015625)"/>
       </defs>
       <use xlink:href="#DejaVuSans-30"/>
       <use xlink:href="#DejaVuSans-2e" x="63.623047"/>
       <use xlink:href="#DejaVuSans-30" x="95.410156"/>
      </g>
     </g>
    </g>
    <g id="ytick_2">
     <g id="line2d_8">
      <g>
       <use xlink:href="#md9583df230" x="57.6" y="259.2" style="stroke: #000000; stroke-width: 0.8"/>
      </g>
     </g>
     <g id="line2d_9">
      <g>
       <use xlink:href="#m761e4a7646" x="414.72" y="259.2" style="stroke: #000000; stroke-width: 0.8"/>
      </g>
     </g>
     <g id="text_8">
      <!-- 0.1 -->
      <g transform="translate(38.196875 262.999219)scale(0.1 -0.1)">
       <use xlink:href="#DejaVuSans-30"/>
       <use xlink:href="#DejaVuSans-2e" x="63.623047"/>
       <use xlink:href="#DejaVuSans-31" x="95.410156"/>
      </g>
     </g>
    </g>
    <g id="ytick_3">
     <g id="line2d_10">
      <g>
       <use xlink:href="#md9583df230" x="57.6" y="210.816" style="stroke: #000000; stroke-width: 0.8"/>
      </g>
     </g>
     <g id="line2d_11">
      <g>
       <use xlink:href="#m761e4a7646" x="414.72" y="210.816" style="stroke: #000000; stroke-width: 0.8"/>
      </g>
     </g>
     <g id="text_9">
      <!-- 0.2 -->
      <g transform="translate(38.196875 214.615219)scale(0.1 -0.1)">
       <use xlink:href="#DejaVuSans-30"/>
       <use xlink:href="#DejaVuSans-2e" x="63.623047"/>
       <use xlink:href="#DejaVuSans-32" x="95.410156"/>
      </g>
     </g>
    </g>
    <g id="ytick_4">
     <g id="line2d_12">
      <g>
       <use xlink:href="#md9583df230" x="57.6" y="162.432" style="stroke: #000000; stroke-width: 0.8"/>
      </g>
     </g>
     <g id="line2d_13">
      <g>
       <use xlink:href="#m761e4a7646" x="414.72" y="162.432" style="stroke: #000000; stroke-width: 0.8"/>
      </g>
     </g>
     <g id="text_10">
      <!-- 0.3 -->
      <g transform="translate(38.196875 166.231219)scale(0.1 -0.1)">
       <use xlink:href="#DejaVuSans-30"/>
       <use xlink:href="#DejaVuSans-2e" x="63.623047"/>
       <use xlink:href="#DejaVuSans-33" x="95.410156"/>
      </g>
     </g>
    </g>
    <g id="ytick_5">
     <g id="line2d_14">
      <g>
       <use xlink:href="#md9583df230" x="57.6" y="114.048" style="stroke: #000000; stroke-width: 0.8"/>
      </g>
     </g>
     <g id="line2d_15">
      <g>
       <use xlink:href="#m761e4a7646" x="414.72" y="114.048" style="stroke: #000000; stroke-width: 0.8"/>
      </g>
     </g>
     <g id="text_11">
      <!-- 0.4 -->
      <g transform="translate(38.196875 117.847219)scale(0.1 -0.1)">
       <use xlink:href="#DejaVuSans-30"/>
       <use xlink:href="#DejaVuSans-2e" x="63.623047"/>
       <use xlink:href="#DejaVuSans-34" x="95.410156"/>
      </g>
     </g>
    </g>
    <g id="ytick_6">
     <g id="line2d_16">
      <g>
       <use xlink:href="#md9583df230" x="57.6" y="65.664" style="stroke: #000000; stroke-width: 0.8"/>
      </g>
     </g>
     <g id="line2d_17">
      <g>
       <use xlink:href="#m761e4a7646" x="414.72" y="65.664" style="stroke: #000000; stroke-width: 0.8"/>
      </g>
     </g>
     <g id="text_12">
      <!-- 0.5 -->
      <g transform="translate(38.196875 69.463219)scale(0.1 -0.1)">
       <defs>
        <path id="DejaVuSans-35" d="M 691 4666 
L 3169 4666 
L 3169 4134 
L 1269 4134 
L 1269 2991 
Q 1406 3038 1543 3061 
Q 1681 3084 1819 3084 
Q 2600 3084 3056 2656 
Q 3513 2228 3513 1497 
Q 3513 744 3044 326 
Q 2575 -91 1722 -91 
Q 1428 -91 1123 -41 
Q 819 9 494 109 
L 494 744 
Q 775 591 1075 516 
Q 1375 441 1709 441 
Q 2250 441 2565 725 
Q 2881 1009 2881 1497 
Q 2881 1984 2565 2268 
Q 2250 2553 1709 2553 
Q 1456 2553 1204 2497 
Q 953 2441 691 2322 
L 691 4666 
z
" transform="scale(0.015625)"/>
       </defs>
       <use xlink:href="#DejaVuSans-30"/>
       <use xlink:href="#DejaVuSans-2e" x="63.623047"/>
       <use xlink:href="#DejaVuSans-35" x="95.410156"/>
      </g>
     </g>
    </g>
    <g id="text_13">
     <!-- Distance Error (m) -->
     <g transform="translate(32.117187 220.525656)rotate(-90)scale(0.1 -0.1)">
      <defs>
       <path id="DejaVuSans-44" d="M 1259 4147 
L 1259 519 
L 2022 519 
Q 2988 519 3436 956 
Q 3884 1394 3884 2338 
Q 3884 3275 3436 3711 
Q 2988 4147 2022 4147 
L 1259 4147 
z
M 628 4666 
L 1925 4666 
Q 3281 4666 3915 4102 
Q 4550 3538 4550 2338 
Q 4550 1131 3912 565 
Q 3275 0 1925 0 
L 628 0 
L 628 4666 
z
" transform="scale(0.015625)"/>
       <path id="DejaVuSans-74" d="M 1172 4494 
L 1172 3500 
L 2356 3500 
L 2356 3053 
L 1172 3053 
L 1172 1153 
Q 1172 725 1289 603 
Q 1406 481 1766 481 
L 2356 481 
L 2356 0 
L 1766 0 
Q 1100 0 847 248 
Q 594 497 594 1153 
L 594 3053 
L 172 3053 
L 172 3500 
L 594 3500 
L 594 4494 
L 1172 4494 
z
" transform="scale(0.015625)"/>
       <path id="DejaVuSans-61" d="M 2194 1759 
Q 1497 1759 1228 1600 
Q 959 1441 959 1056 
Q 959 750 1161 570 
Q 1363 391 1709 391 
Q 2188 391 2477 730 
Q 2766 1069 2766 1631 
L 2766 1759 
L 2194 1759 
z
M 3341 1997 
L 3341 0 
L 2766 0 
L 2766 531 
Q 2569 213 2275 61 
Q 1981 -91 1556 -91 
Q 1019 -91 701 211 
Q 384 513 384 1019 
Q 384 1609 779 1909 
Q 1175 2209 1959 2209 
L 2766 2209 
L 2766 2266 
Q 2766 2663 2505 2880 
Q 2244 3097 1772 3097 
Q 1472 3097 1187 3025 
Q 903 2953 641 2809 
L 641 3341 
Q 956 3463 1253 3523 
Q 1550 3584 1831 3584 
Q 2591 3584 2966 3190 
Q 3341 2797 3341 1997 
z
" transform="scale(0.015625)"/>
       <path id="DejaVuSans-6e" d="M 3513 2113 
L 3513 0 
L 2938 0 
L 2938 2094 
Q 2938 2591 2744 2837 
Q 2550 3084 2163 3084 
Q 1697 3084 1428 2787 
Q 1159 2491 1159 1978 
L 1159 0 
L 581 0 
L 581 3500 
L 1159 3500 
L 1159 2956 
Q 1366 3272 1645 3428 
Q 1925 3584 2291 3584 
Q 2894 3584 3203 3211 
Q 3513 2838 3513 2113 
z
" transform="scale(0.015625)"/>
       <path id="DejaVuSans-63" d="M 3122 3366 
L 3122 2828 
Q 2878 2963 2633 3030 
Q 2388 3097 2138 3097 
Q 1578 3097 1268 2742 
Q 959 2388 959 1747 
Q 959 1106 1268 751 
Q 1578 397 2138 397 
Q 2388 397 2633 464 
Q 2878 531 3122 666 
L 3122 134 
Q 2881 22 2623 -34 
Q 2366 -91 2075 -91 
Q 1284 -91 818 406 
Q 353 903 353 1747 
Q 353 2603 823 3093 
Q 1294 3584 2113 3584 
Q 2378 3584 2631 3529 
Q 2884 3475 3122 3366 
z
" transform="scale(0.015625)"/>
       <path id="DejaVuSans-45" d="M 628 4666 
L 3578 4666 
L 3578 4134 
L 1259 4134 
L 1259 2753 
L 3481 2753 
L 3481 2222 
L 1259 2222 
L 1259 531 
L 3634 531 
L 3634 0 
L 628 0 
L 628 4666 
z
" transform="scale(0.015625)"/>
       <path id="DejaVuSans-72" d="M 2631 2963 
Q 2534 3019 2420 3045 
Q 2306 3072 2169 3072 
Q 1681 3072 1420 2755 
Q 1159 2438 1159 1844 
L 1159 0 
L 581 0 
L 581 3500 
L 1159 3500 
L 1159 2956 
Q 1341 3275 1631 3429 
Q 1922 3584 2338 3584 
Q 2397 3584 2469 3576 
Q 2541 3569 2628 3553 
L 2631 2963 
z
" transform="scale(0.015625)"/>
       <path id="DejaVuSans-6f" d="M 1959 3097 
Q 1497 3097 1228 2736 
Q 959 2375 959 1747 
Q 959 1119 1226 758 
Q 1494 397 1959 397 
Q 2419 397 2687 759 
Q 2956 1122 2956 1747 
Q 2956 2369 2687 2733 
Q 2419 3097 1959 3097 
z
M 1959 3584 
Q 2709 3584 3137 3096 
Q 3566 2609 3566 1747 
Q 3566 888 3137 398 
Q 2709 -91 1959 -91 
Q 1206 -91 779 398 
Q 353 888 353 1747 
Q 353 2609 779 3096 
Q 1206 3584 1959 3584 
z
" transform="scale(0.015625)"/>
      </defs>
      <use xlink:href="#DejaVuSans-44"/>
      <use xlink:href="#DejaVuSans-69" x="77.001953"/>
      <use xlink:href="#DejaVuSans-73" x="104.785156"/>
      <use xlink:href="#DejaVuSans-74" x="156.884766"/>
      <use xlink:href="#DejaVuSans-61" x="196.09375"/>
      <use xlink:href="#DejaVuSans-6e" x="257.373047"/>
      <use xlink:href="#DejaVuSans-63" x="320.751953"/>
      <use xlink:href="#DejaVuSans-65" x="375.732422"/>
      <use xlink:href="#DejaVuSans-20" x="437.255859"/>
      <use xlink:href="#DejaVuSans-45" x="469.042969"/>
      <use xlink:href="#DejaVuSans-72" x="532.226562"/>
      <use xlink:href="#DejaVuSans-72" x="571.589844"/>
      <use xlink:href="#DejaVuSans-6f" x="610.453125"/>
      <use xlink:href="#DejaVuSans-72" x="671.634766"/>
      <use xlink:href="#DejaVuSans-20" x="712.748047"/>
      <use xlink:href="#DejaVuSans-28" x="744.535156"/>
      <use xlink:href="#DejaVuSans-6d" x="783.548828"/>
      <use xlink:href="#DejaVuSans-29" x="880.960938"/>
     </g>
    </g>
   </g>
   <g id="line2d_18">
    <path d="M 73.832727 273.617167 
L 74.561689 276.098424 
L 75.28698 262.103713 
L 76.013254 263.076359 
L 76.73967 283.570432 
L 77.466192 281.416469 
L 78.19202 280.283014 
L 78.918774 280.004554 
L 79.644787 279.27134 
L 80.370959 283.368283 
L 81.8235 284.212894 
L 82.550356 285.447369 
L 83.276144 293.877167 
L 84.002448 296.404175 
L 84.728935 295.809845 
L 85.455088 296.025949 
L 86.181827 292.099003 
L 86.907841 285.979669 
L 88.360104 263.215299 
L 89.086467 262.300226 
L 89.812356 261.695648 
L 90.539469 262.95873 
L 91.265447 264.577401 
L 91.991482 272.819375 
L 92.718482 273.673667 
L 93.44513 264.211656 
L 94.897185 265.923954 
L 95.623242 273.248044 
L 96.349407 267.774299 
L 97.076453 266.272345 
L 97.801962 267.867892 
L 98.528446 276.532662 
L 99.980979 272.793025 
L 100.707265 273.11952 
L 101.433775 275.970328 
L 102.160176 275.782749 
L 102.886445 276.874856 
L 103.612477 275.532507 
L 104.338497 274.810019 
L 105.064809 274.536997 
L 105.791229 273.867711 
L 107.2438 271.200241 
L 107.97001 271.431444 
L 108.696361 271.389281 
L 109.422657 276.136433 
L 110.149101 274.646555 
L 110.87566 273.691089 
L 111.601489 276.647695 
L 112.32786 276.052933 
L 113.054415 283.219902 
L 113.781119 288.935676 
L 114.506631 284.207743 
L 115.232982 285.155926 
L 115.959124 283.456749 
L 116.685495 280.117105 
L 117.411735 280.768147 
L 118.138293 281.659475 
L 118.864725 266.358906 
L 119.590951 263.249255 
L 120.317295 252.09596 
L 121.043436 254.329006 
L 121.769696 269.186881 
L 122.496249 268.412239 
L 123.222492 267.201092 
L 123.948536 285.475746 
L 124.674717 286.513267 
L 125.401275 286.020462 
L 126.127477 287.472561 
L 127.579852 281.658702 
L 128.306114 281.725953 
L 129.032505 291.720814 
L 129.758775 292.862392 
L 130.485183 291.856728 
L 131.211217 287.862506 
L 131.937721 293.185672 
L 132.66429 294.34185 
L 133.390841 295.104625 
L 134.116813 293.407712 
L 134.84285 293.547884 
L 135.5692 282.279413 
L 136.29549 290.174025 
L 137.021913 293.079216 
L 137.7486 291.991604 
L 138.474624 292.564063 
L 139.200973 289.457934 
L 139.926325 287.233612 
L 140.653042 287.158101 
L 142.105618 287.426682 
L 142.831455 285.097423 
L 143.558543 283.532093 
L 144.285172 286.869952 
L 145.011439 287.337286 
L 145.736919 290.020368 
L 146.46369 286.690342 
L 147.190039 286.982054 
L 147.916128 285.714881 
L 148.64212 285.16698 
L 149.368772 285.836617 
L 150.094933 284.142341 
L 150.821845 284.714188 
L 151.547903 284.860491 
L 153.726668 280.769946 
L 154.45255 288.951042 
L 155.17895 237.471279 
L 155.905228 132.836405 
L 156.631814 66.256255 
L 157.358071 175.271183 
L 158.084129 99.003263 
L 158.810569 78.141081 
L 159.537162 195.911791 
L 160.26321 244.843544 
L 160.989709 279.092556 
L 161.715729 255.393128 
L 162.442104 263.940115 
L 163.168678 269.024894 
L 163.894985 263.968645 
L 164.621216 260.603083 
L 165.347502 252.389591 
L 166.074561 267.549064 
L 166.799736 276.099358 
L 167.526102 290.326154 
L 168.252402 297.252968 
L 169.705051 295.578735 
L 171.157454 294.270063 
L 172.610042 293.599252 
L 173.336246 293.43568 
L 174.063083 293.415025 
L 174.788999 293.517046 
L 175.515198 293.75504 
L 177.694241 295.008898 
L 179.872408 296.339501 
L 180.599243 296.667217 
L 181.325929 297.162031 
L 182.778031 297.738543 
L 183.504991 297.873706 
L 184.957076 297.798916 
L 186.409874 297.375117 
L 190.767828 295.591054 
L 192.220134 295.352797 
L 194.398969 295.392976 
L 202.388142 295.67305 
L 203.841068 295.360026 
L 205.293421 294.673235 
L 206.746023 293.785537 
L 208.92491 291.920686 
L 212.556645 288.767973 
L 214.008717 287.729553 
L 215.46181 286.955508 
L 216.914069 286.388527 
L 218.366647 285.991632 
L 219.819291 285.751066 
L 221.997783 285.679945 
L 223.450576 285.764376 
L 224.903277 286.081792 
L 226.355739 286.735121 
L 227.808299 287.761951 
L 228.534544 288.266427 
L 230.713485 290.515088 
L 235.071266 295.757285 
L 236.523731 297.139086 
L 237.250061 297.6064 
L 237.976321 297.878051 
L 238.703387 297.964353 
L 239.430118 297.879347 
L 240.155764 297.621188 
L 241.607892 296.762297 
L 243.060527 295.538993 
L 247.418154 291.822628 
L 248.870972 290.732178 
L 251.049641 289.262439 
L 253.228731 288.308445 
L 256.859918 287.186576 
L 260.491442 286.176276 
L 262.670366 285.594619 
L 264.849694 285.293155 
L 269.933294 284.802865 
L 271.385802 284.920124 
L 273.564826 285.609127 
L 275.744001 286.635457 
L 279.375301 288.759816 
L 280.828045 289.866554 
L 282.280376 291.28055 
L 289.543692 299.404855 
L 290.2698 299.986784 
L 290.996001 300.419883 
L 291.722322 300.60824 
L 292.448481 300.528174 
L 293.174966 300.215687 
L 294.627078 299.137164 
L 296.079814 297.552242 
L 298.259099 294.957415 
L 300.437697 292.717612 
L 301.890026 291.478814 
L 304.069245 289.531063 
L 308.427556 286.369951 
L 312.058271 284.651232 
L 313.511105 284.371943 
L 314.237078 284.375935 
L 315.68962 284.676816 
L 317.142383 285.193186 
L 317.868441 285.465949 
L 320.047432 286.730134 
L 320.773988 287.19653 
L 324.405244 290.565414 
L 328.036629 295.076006 
L 333.120731 300.333991 
L 335.2996 301.823471 
L 336.025991 302.217689 
L 337.478944 302.668711 
L 338.93115 302.82305 
L 340.383693 302.649754 
L 341.109872 302.501262 
L 344.741438 301.005785 
L 345.467967 300.610391 
L 347.646433 298.955195 
L 348.373497 298.239341 
L 349.098787 297.981648 
L 398.487273 297.981648 
L 398.487273 297.981648 
" clip-path="url(#p78b6ba6a46)" style="fill: none; stroke: #1f77b4; stroke-width: 1.5; stroke-linecap: square"/>
   </g>
   <g id="line2d_19">
    <path d="M 73.832727 284.317754 
L 75.28698 283.346461 
L 76.013254 282.457346 
L 76.73967 281.311796 
L 77.466192 280.887659 
L 78.19202 280.252934 
L 80.370959 277.092148 
L 82.550356 274.194092 
L 83.276144 273.329572 
L 84.002448 272.955336 
L 85.455088 272.964267 
L 86.181827 272.779284 
L 87.633887 274.876643 
L 88.360104 275.16145 
L 89.086467 276.370019 
L 91.265447 280.659629 
L 91.991482 281.803484 
L 92.718482 283.50419 
L 93.44513 284.891135 
L 94.170179 285.341987 
L 95.623242 285.548343 
L 96.349407 285.961034 
L 97.076453 285.453436 
L 99.980979 281.577987 
L 101.433775 279.289094 
L 102.886445 277.336978 
L 105.064809 274.382265 
L 106.517399 272.239185 
L 107.97001 269.773596 
L 108.696361 268.713614 
L 109.422657 267.44378 
L 111.601489 266.088143 
L 112.32786 265.694785 
L 113.054415 265.459905 
L 113.781119 265.584965 
L 114.506631 266.86701 
L 116.685495 271.467199 
L 118.138293 273.844614 
L 118.864725 274.826224 
L 119.590951 273.933482 
L 120.317295 272.606307 
L 121.769696 268.893037 
L 123.222492 267.311779 
L 123.948536 266.267484 
L 126.854179 268.037739 
L 127.579852 268.532523 
L 129.032505 268.858475 
L 130.485183 271.014142 
L 131.937721 272.930822 
L 132.66429 274.259233 
L 133.390841 275.983352 
L 135.5692 279.507702 
L 136.29549 279.84241 
L 137.021913 280.638736 
L 137.7486 281.757056 
L 139.200973 283.375603 
L 139.926325 284.172678 
L 142.105618 285.774014 
L 143.558543 286.756684 
L 144.285172 286.88492 
L 145.011439 287.199255 
L 147.190039 288.775631 
L 148.64212 289.498556 
L 152.274104 290.122 
L 153.001463 290.169698 
L 154.45255 289.610553 
L 155.17895 290.121215 
L 156.631814 303.905013 
L 157.358071 286.272318 
L 158.084129 294.046454 
L 158.810569 304.540927 
L 159.537162 292.635626 
L 160.26321 286.030749 
L 160.989709 283.135497 
L 161.715729 282.865625 
L 163.168678 289.464548 
L 163.894985 292.197339 
L 164.621216 294.246682 
L 165.347502 294.486055 
L 166.074561 292.712277 
L 168.252402 285.305391 
L 169.705051 282.180407 
L 171.157454 279.482572 
L 172.610042 277.508879 
L 173.336246 276.732238 
L 174.063083 276.127801 
L 174.788999 275.687685 
L 175.515198 275.415416 
L 176.967785 275.281787 
L 179.146748 275.509705 
L 180.599243 275.830727 
L 182.778031 276.682784 
L 184.957076 277.358618 
L 188.589512 278.1167 
L 190.041133 278.432339 
L 191.494097 278.97555 
L 192.946297 279.798612 
L 199.482826 284.034194 
L 200.935434 284.876642 
L 202.388142 285.545524 
L 203.841068 285.959105 
L 206.019707 286.026666 
L 207.472138 285.723839 
L 209.650795 285.037345 
L 211.830019 284.359139 
L 214.008717 283.959256 
L 215.46181 283.936978 
L 217.640489 284.180363 
L 220.544985 284.982024 
L 223.450576 286.159943 
L 224.903277 286.985491 
L 226.355739 288.113303 
L 228.534544 290.297947 
L 230.713485 293.180972 
L 236.523731 302.159281 
L 237.250061 303.024342 
L 237.976321 303.590994 
L 238.703387 303.770803 
L 239.430118 303.5544 
L 240.155764 302.962036 
L 242.334036 300.435377 
L 243.78691 298.648963 
L 247.418154 295.188875 
L 248.870972 294.130056 
L 250.323289 293.17312 
L 251.775839 292.464335 
L 253.228731 291.996858 
L 255.407282 291.588852 
L 259.765145 290.836544 
L 269.933294 288.511042 
L 271.385802 288.382258 
L 272.838445 288.542024 
L 274.291116 288.860389 
L 276.46989 289.610119 
L 279.375301 290.863371 
L 280.828045 291.76627 
L 282.280376 292.994209 
L 286.637907 297.57023 
L 288.817021 299.928018 
L 290.2698 300.959821 
L 290.996001 301.296997 
L 291.722322 301.365917 
L 292.448481 301.14635 
L 293.174966 300.69975 
L 294.627078 299.397389 
L 296.079814 297.647737 
L 298.259099 294.893012 
L 300.437697 292.545155 
L 301.890026 291.244343 
L 304.069245 289.211276 
L 308.427556 285.899207 
L 312.058271 284.082329 
L 313.511105 283.772456 
L 314.237078 283.763195 
L 315.68962 284.041302 
L 317.142383 284.539916 
L 317.868441 284.805607 
L 320.047432 286.055757 
L 320.773988 286.519647 
L 323.678841 289.170394 
L 324.405244 289.891672 
L 328.036629 294.432224 
L 333.120731 299.766639 
L 335.2996 301.295043 
L 336.025991 301.702854 
L 337.478944 302.178818 
L 338.93115 302.357363 
L 340.383693 302.20831 
L 341.109872 302.071943 
L 344.741438 300.634451 
L 345.467967 300.249715 
L 347.646433 298.626714 
L 348.373497 297.922476 
L 349.098787 297.677467 
L 373.066826 297.996022 
L 397.034662 298.069171 
L 398.487273 298.068008 
L 398.487273 298.068008 
" clip-path="url(#p78b6ba6a46)" style="fill: none; stroke: #ff7f0e; stroke-width: 1.5; stroke-linecap: square"/>
   </g>
   <g id="patch_3">
    <path d="M 57.6 307.584 
L 57.6 41.472 
" style="fill: none; stroke: #000000; stroke-width: 0.8; stroke-linejoin: miter; stroke-linecap: square"/>
   </g>
   <g id="patch_4">
    <path d="M 414.72 307.584 
L 414.72 41.472 
" style="fill: none; stroke: #000000; stroke-width: 0.8; stroke-linejoin: miter; stroke-linecap: square"/>
   </g>
   <g id="patch_5">
    <path d="M 57.6 307.584 
L 414.72 307.584 
" style="fill: none; stroke: #000000; stroke-width: 0.8; stroke-linejoin: miter; stroke-linecap: square"/>
   </g>
   <g id="patch_6">
    <path d="M 57.6 41.472 
L 414.72 41.472 
" style="fill: none; stroke: #000000; stroke-width: 0.8; stroke-linejoin: miter; stroke-linecap: square"/>
   </g>
   <g id="legend_1">
    <g id="patch_7">
     <path d="M 310.121563 78.82825 
L 407.72 78.82825 
Q 409.72 78.82825 409.72 76.82825 
L 409.72 48.472 
Q 409.72 46.472 407.72 46.472 
L 310.121563 46.472 
Q 308.121563 46.472 308.121563 48.472 
L 308.121563 76.82825 
Q 308.121563 78.82825 310.121563 78.82825 
z
" style="fill: #ffffff; opacity: 0.8; stroke: #cccccc; stroke-linejoin: miter"/>
    </g>
    <g id="line2d_20">
     <path d="M 312.121563 54.570437 
L 322.121563 54.570437 
L 332.121563 54.570437 
" style="fill: none; stroke: #1f77b4; stroke-width: 1.5; stroke-linecap: square"/>
    </g>
    <g id="text_14">
     <!-- raw estimate -->
     <g transform="translate(340.121563 58.070437)scale(0.1 -0.1)">
      <defs>
       <path id="DejaVuSans-77" d="M 269 3500 
L 844 3500 
L 1563 769 
L 2278 3500 
L 2956 3500 
L 3675 769 
L 4391 3500 
L 4966 3500 
L 4050 0 
L 3372 0 
L 2619 2869 
L 1863 0 
L 1184 0 
L 269 3500 
z
" transform="scale(0.015625)"/>
      </defs>
      <use xlink:href="#DejaVuSans-72"/>
      <use xlink:href="#DejaVuSans-61" x="41.113281"/>
      <use xlink:href="#DejaVuSans-77" x="102.392578"/>
      <use xlink:href="#DejaVuSans-20" x="184.179688"/>
      <use xlink:href="#DejaVuSans-65" x="215.966797"/>
      <use xlink:href="#DejaVuSans-73" x="277.490234"/>
      <use xlink:href="#DejaVuSans-74" x="329.589844"/>
      <use xlink:href="#DejaVuSans-69" x="368.798828"/>
      <use xlink:href="#DejaVuSans-6d" x="396.582031"/>
      <use xlink:href="#DejaVuSans-61" x="493.994141"/>
      <use xlink:href="#DejaVuSans-74" x="555.273438"/>
      <use xlink:href="#DejaVuSans-65" x="594.482422"/>
     </g>
    </g>
    <g id="line2d_21">
     <path d="M 312.121563 69.248562 
L 322.121563 69.248562 
L 332.121563 69.248562 
" style="fill: none; stroke: #ff7f0e; stroke-width: 1.5; stroke-linecap: square"/>
    </g>
    <g id="text_15">
     <!-- kf estimate -->
     <g transform="translate(340.121563 72.748562)scale(0.1 -0.1)">
      <defs>
       <path id="DejaVuSans-6b" d="M 581 4863 
L 1159 4863 
L 1159 1991 
L 2875 3500 
L 3609 3500 
L 1753 1863 
L 3688 0 
L 2938 0 
L 1159 1709 
L 1159 0 
L 581 0 
L 581 4863 
z
" transform="scale(0.015625)"/>
       <path id="DejaVuSans-66" d="M 2375 4863 
L 2375 4384 
L 1825 4384 
Q 1516 4384 1395 4259 
Q 1275 4134 1275 3809 
L 1275 3500 
L 2222 3500 
L 2222 3053 
L 1275 3053 
L 1275 0 
L 697 0 
L 697 3053 
L 147 3053 
L 147 3500 
L 697 3500 
L 697 3744 
Q 697 4328 969 4595 
Q 1241 4863 1831 4863 
L 2375 4863 
z
" transform="scale(0.015625)"/>
      </defs>
      <use xlink:href="#DejaVuSans-6b"/>
      <use xlink:href="#DejaVuSans-66" x="57.910156"/>
      <use xlink:href="#DejaVuSans-20" x="93.115234"/>
      <use xlink:href="#DejaVuSans-65" x="124.902344"/>
      <use xlink:href="#DejaVuSans-73" x="186.425781"/>
      <use xlink:href="#DejaVuSans-74" x="238.525391"/>
      <use xlink:href="#DejaVuSans-69" x="277.734375"/>
      <use xlink:href="#DejaVuSans-6d" x="305.517578"/>
      <use xlink:href="#DejaVuSans-61" x="402.929688"/>
      <use xlink:href="#DejaVuSans-74" x="464.208984"/>
      <use xlink:href="#DejaVuSans-65" x="503.417969"/>
     </g>
    </g>
   </g>
  </g>
 </g>
 <defs>
  <clipPath id="p78b6ba6a46">
   <rect x="57.6" y="41.472" width="357.12" height="266.112"/>
  </clipPath>
 </defs>
</svg>
